<?xml version="1.0" encoding="UTF-8"?>
<svg width="150px" height="150px" viewBox="0 0 150 150" version="1.1" xmlns="http://www.w3.org/2000/svg" xmlns:xlink="http://www.w3.org/1999/xlink">
    <!-- Generator: Sketch 47.1 (45422) - http://www.bohemiancoding.com/sketch -->
    <title>bitcoin</title>
    <desc>Created with Sketch.</desc>
    <defs></defs>
    <g id="Page-1" stroke="none" stroke-width="1" fill="none" fill-rule="evenodd">
        <g id="bitcoin" fill-rule="nonzero" fill="#F2A900">
            <path d="M89.7482354,80.8413288 C88.019599,79.9750111 84.1688531,78.8084581 79.5853876,78.5049163 C74.9999382,78.2020358 69.1183422,78.5049163 69.1183422,78.5049163 L69.1183422,98.3574791 C69.1183422,98.3574791 75.2598289,98.4884188 79.3704653,98.1855382 C83.477134,97.8826577 87.7167239,96.8450604 89.8361882,95.6758621 C91.9543298,94.5079865 94.5069452,92.6913646 94.5069452,88.1508018 C94.5069452,83.608255 91.4788556,81.7063239 89.7482354,80.8413288 Z" id="Shape"></path>
            <path d="M76.8165274,69.2915284 C80.1917991,69.1612501 83.7813317,68.3835481 86.3742863,66.9557771 C88.9698861,65.5286675 90.4399544,63.2808707 90.3553081,59.9061995 C90.266694,56.5321897 88.019599,53.6779705 84.2138215,52.5087722 C80.4067214,51.3408966 77.8567512,51.2542648 74.9569538,51.2112796 C72.0591402,51.1689557 69.1176809,51.4281897 69.1176809,51.4281897 L69.1176809,69.2915284 C69.1183422,69.2915284 73.4432397,69.4218067 76.8165274,69.2915284 Z" id="Shape"></path>
            <path d="M74.9999382,0 C33.5787949,0 0,33.5787385 0,75.0012895 C0,116.423179 33.5787949,150.002579 74.9999382,150.002579 C116.421082,150.002579 149.998554,116.423179 149.998554,75.0012895 C149.998554,33.5787385 116.421082,0 74.9999382,0 Z M105.537418,103.678389 C99.9560514,107.571528 93.9878252,108.264583 91.349241,108.609126 C90.0471426,108.780405 87.8165801,108.960943 85.4246605,109.101141 L85.4246605,124.138036 L76.1677928,124.138036 L76.1677928,109.344504 C74.4384951,109.344504 71.9612679,109.344504 69.1183422,109.344504 L69.1183422,124.138036 L59.8621358,124.138036 L59.8621358,109.344504 C50.7018178,109.344504 41.6532594,109.344504 41.6532594,109.344504 L43.5558175,98.2265395 C43.5558175,98.2265395 47.2319804,98.2265395 49.091554,98.2265395 C50.9524503,98.2265395 51.7294769,98.0539373 52.5078262,97.3192205 C53.2861755,96.5831811 53.4594359,95.4596134 53.4594359,94.5496491 C53.4594359,93.6416688 53.4594359,58.6497082 53.4594359,56.2491485 C53.4594359,53.8499114 53.2643526,53.2005038 52.1613054,51.968481 C51.0582581,50.7338129 48.463981,50.5717917 47.0031708,50.5717917 C45.5436832,50.5717917 41.6525981,50.5717917 41.6525981,50.5717917 L41.6525981,40.9609557 C41.6525981,40.9609557 50.4121687,40.9609557 59.8614745,40.9609557 L59.8614745,26.1250998 L69.1170196,26.1250998 L69.1170196,40.9609557 C71.6888126,40.9609557 74.1012325,40.9609557 76.1664702,40.9609557 L76.1664702,26.1250998 L85.4233379,26.1250998 L85.4233379,41.1388484 C92.3239962,41.5667168 97.4609692,42.8814035 101.944578,46.1945727 C107.741528,50.4765628 107.43733,57.9156528 107.307716,59.6892895 C107.178762,61.4629261 106.400413,64.8805825 104.841731,67.0847328 C103.286355,69.2915284 99.4799159,71.4976626 99.4799159,71.4976626 C99.4799159,71.4976626 103.977413,72.4486281 107.136439,74.8280259 C110.291498,77.2074237 112.629853,81.4021208 112.496931,87.5443794 C112.369962,93.686638 111.116139,99.7859114 105.537418,103.678389 Z" id="Shape"></path>
        </g>
    </g>
</svg>