<?xml version="1.0" encoding="UTF-8"?>
<svg width="650px" height="650px" viewBox="0 0 650 650" version="1.1" xmlns="http://www.w3.org/2000/svg" xmlns:xlink="http://www.w3.org/1999/xlink">
    <!-- Generator: Sketch 47.1 (45422) - http://www.bohemiancoding.com/sketch -->
    <title>bitso-slack-logo</title>
    <desc>Created with Sketch.</desc>
    <defs></defs>
    <g id="Page-1" stroke="none" stroke-width="1" fill="none" fill-rule="evenodd">
        <g id="bitso-slack-logo">
            <g id="bitso" transform="translate(0.000000, 0.314353)" fill-rule="nonzero">
                <path d="M315.871854,15.0496467 C290.802659,15.0496467 265.733464,17.5566113 243.171189,23.8240229 C239.41081,23.8240229 238.15735,25.0775052 236.90389,27.5844699 C235.650431,30.0914345 234.396971,32.5983992 234.396971,33.8518815 L234.396971,220.620747 C234.396971,220.620747 234.396971,224.381194 235.650431,225.634677 C236.90389,226.888159 239.41081,226.888159 241.917729,224.381194 C263.226545,209.339406 288.29574,200.56503 315.871854,200.56503 C387.319059,200.56503 444.978207,258.225217 444.978207,329.673709 L444.978207,332.180674 L444.978207,610.453749 C444.978207,610.453749 444.978207,612.960714 446.231667,614.214196 C447.485126,615.467678 448.738586,615.467678 451.245506,614.214196 C557.789583,564.074903 632.997168,455.021941 632.997168,328.420227 C630.490248,156.693149 490.102758,15.0496467 315.871854,15.0496467" id="Shape" fill="#A5C88F"></path>
                <path d="M391.079438,433.712742 C369.770623,448.75453 343.447968,458.782388 315.871854,458.782388 C244.424649,458.782388 186.765501,401.122201 186.765501,329.673709 L186.765501,8.78223507 C186.765501,6.27527043 185.512041,3.76830579 184.258581,1.26134114 C181.751662,0.00785882333 179.244743,0.00785882333 177.991283,0.00785882333 L10.0276779,0.00785882333 C6.26729869,0.00785882333 3.76037921,1.26134114 2.50691948,2.51482346 C1.25345974,3.76830579 0,6.27527043 0,10.0357174 C0,56.4145633 0,272.013522 0,330.927191 C0,505.161234 141.64095,646.804736 315.871854,646.804736 C342.194508,646.804736 366.010243,644.297772 391.079438,638.03036 C393.586358,636.776878 394.839817,635.523395 396.093277,634.269913 C397.346737,633.016431 398.600197,629.255984 398.600197,626.749019 L398.600197,438.726671 C397.346737,438.726671 397.346737,434.966224 396.093277,433.712742 C394.839817,432.459259 393.586358,432.459259 391.079438,433.712742 Z" id="Shape" fill="#5C4B51"></path>
            </g>
            <g id="Group" transform="translate(415.829989, 415.829989)">
                <circle id="Oval-2" fill="#D0021B" cx="116.899997" cy="116.899997" r="116.899997"></circle>
                <text id="1" font-family="JosefinSans-Bold, Josefin Sans" font-size="133.599997" font-weight="bold" fill="#FFFFFF">
                    <tspan x="93.5199976" y="162.069999">1</tspan>
                </text>
            </g>
        </g>
    </g>
</svg>