<?xml version="1.0" encoding="UTF-8"?>
<svg width="143px" height="150px" viewBox="0 0 143 150" version="1.1" xmlns="http://www.w3.org/2000/svg" xmlns:xlink="http://www.w3.org/1999/xlink">
    <!-- Generator: Sketch 47.1 (45422) - http://www.bohemiancoding.com/sketch -->
    <title>xrp</title>
    <desc>Created with Sketch.</desc>
    <defs></defs>
    <g id="Page-1" stroke="none" stroke-width="1" fill="none" fill-rule="evenodd">
        <g id="xrp" fill-rule="nonzero" fill="#0091CF">
            <path d="M126.175095,91.6477758 C121.140659,88.8953985 115.663139,87.6203904 110.268532,87.6627143 L110.314299,87.6369232 C102.913214,87.721571 96.8420419,81.9827123 96.7551498,74.8207117 C96.6695842,67.75394 102.436302,61.9469662 109.692789,61.7055876 L109.692789,61.7022811 L109.679523,61.695668 C115.168982,61.6692155 120.722781,60.2771554 125.782422,57.3660634 C140.912263,48.6599012 145.886339,29.7318514 136.89201,15.0884371 C127.895692,0.444361397 108.338996,-4.36932298 93.2091555,4.33683924 C78.0793149,13.0423401 73.1059021,31.9710512 82.1008942,46.6144656 C85.8472046,52.7163842 83.7763864,60.6025205 77.4723966,64.2304739 C71.2579522,67.8061836 63.2559181,65.9062365 59.4386348,60.0093243 L59.4353183,60.010647 L59.4353183,60.0271797 C56.684619,55.4304054 52.676969,51.4592316 47.5536508,48.6579172 C32.2294636,40.2777815 12.7855289,45.5074306 4.1274925,60.3413026 C-4.5305439,75.171868 0.875339551,93.9901401 16.20019,102.369615 C31.5257038,110.74975 50.9669853,105.51944 59.625685,90.6862292 C59.6780856,90.5969522 59.7245165,90.5043687 59.7755904,90.4144303 L59.7755904,90.4362536 L59.7789069,90.4375762 C63.4568976,84.4500644 71.4231136,82.3755311 77.7191437,85.8183173 C84.1053825,89.3107019 86.3559546,97.1505464 82.7489369,103.329838 C74.0895739,118.16371 79.4961206,136.98066 94.8203078,145.359473 C110.145158,153.74027 129.58843,148.509298 138.246466,133.676088 C146.903176,118.8442 141.499282,100.027912 126.175095,91.6477758 Z" id="XRP"></path>
        </g>
    </g>
</svg>